<?xml version="1.0" encoding="utf-8"?>
<!-- Generator: Adobe Illustrator 22.1.0, SVG Export Plug-In . SVG Version: 6.00 Build 0)  -->
<svg version="1.1" id="Layer_1" xmlns="http://www.w3.org/2000/svg" xmlns:xlink="http://www.w3.org/1999/xlink" x="0px" y="0px"
	 viewBox="0 0 3000 825" style="enable-background:new 0 0 3000 825;" xml:space="preserve">
<style type="text/css">
	.st0{fill:#1E88E5;}
</style>
<g>
	<polygon class="st0" points="901.25995,752.10718 885.26752,727.25104 873.6228,727.25104 896.13318,761.14526 
		896.13318,785.21973 906.30164,785.21973 906.30164,761.14526 928.72278,727.25104 917.078,727.25104 	"/>
	<path class="st0" d="M1005.5719,726.29498c-17.38153,0-29.63641,12.68848-29.63641,29.98291
		c0,17.29651,12.25488,29.98499,29.63641,29.98499c17.38159,0,29.63696-12.68848,29.63696-29.98499
		C1035.20886,738.98346,1022.95349,726.29498,1005.5719,726.29498z M1005.5719,777.22479
		c-11.73193,0-19.20648-9.04065-19.20648-20.9469c0-11.9939,7.47455-20.94482,19.20648-20.94482
		c11.64795,0,19.20654,8.95093,19.20654,20.94482C1024.77844,768.18414,1017.21985,777.22479,1005.5719,777.22479z"/>
	<path class="st0" d="M1131.8772,762.01416c0,9.2124-5.12683,15.21063-14.7749,15.21063
		c-9.73267,0-14.86157-5.99823-14.86157-15.21063v-34.76312h-10.25549v35.11176c0,14.25195,8.25635,23.90009,25.11707,23.90009
		c16.77405,0,25.0304-9.56097,25.0304-23.98724v-35.0246h-10.25549V762.01416z"/>
	<path class="st0" d="M1245.83728,745.41437c0-10.69135-7.47192-18.16333-18.94507-18.16333h-25.4657v57.96869h10.16846v-21.64209
		h10.08386l12.8623,21.64209h11.73193l-14.16699-22.76978C1239.06042,761.31958,1245.83728,755.75708,1245.83728,745.41437z
		 M1211.59497,754.62671v-18.42474h13.9054c5.73682,0,9.90967,3.65039,9.90967,9.2124c0,5.5625-4.17285,9.21234-9.90967,9.21234
		H1211.59497z"/>
	<polygon class="st0" points="1421.34448,771.92114 1409.3512,727.25104 1401.26917,727.25104 1389.27527,771.92114 
		1377.97644,727.25104 1366.59058,727.25104 1383.19299,785.21973 1394.05603,785.21973 1405.26758,742.45905 1416.56641,785.21973 
		1427.42944,785.21973 1443.94214,727.25104 1432.55615,727.25104 	"/>
	<path class="st0" d="M1522.97058,726.29498c-17.38159,0-29.63696,12.68848-29.63696,29.98291
		c0,17.29651,12.25537,29.98499,29.63696,29.98499s29.63635-12.68848,29.63635-29.98499
		C1552.60693,738.98346,1540.35217,726.29498,1522.97058,726.29498z M1522.97058,777.22479
		c-11.73242,0-19.20703-9.04065-19.20703-20.9469c0-11.9939,7.47461-20.94482,19.20703-20.94482
		c11.64734,0,19.20642,8.95093,19.20642,20.94482C1542.177,768.18414,1534.61792,777.22479,1522.97058,777.22479z"/>
	<path class="st0" d="M1653.79199,745.41437c0-10.69135-7.47205-18.16333-18.94507-18.16333h-25.46631v57.96869h10.16846v-21.64209
		h10.08398l12.86279,21.64209h11.73181l-14.16736-22.76978C1647.01453,761.31958,1653.79199,755.75708,1653.79199,745.41437z
		 M1619.54907,754.62671v-18.42474h13.90601c5.73633,0,9.90967,3.65039,9.90967,9.2124c0,5.5625-4.17334,9.21234-9.90967,9.21234
		H1619.54907z"/>
	<polygon class="st0" points="1721.08008,727.25104 1710.91162,727.25104 1710.91162,785.21973 1746.63342,785.21973 
		1746.63342,776.2688 1721.08008,776.2688 	"/>
	<path class="st0" d="M1824.50427,727.22797l-21.55383-0.11499l-0.31079,57.9671l21.55432,0.11548
		c18.07825,0.09711,30.39453-11.74347,30.48584-28.77905C1854.77063,739.38409,1842.58301,727.32507,1824.50427,727.22797z
		 M1824.24182,776.24463l-11.38599-0.06091l0.21472-40.06573l11.38599,0.06091c12.94934,0.06927,19.85596,8.97034,19.79602,20.18195
		C1844.19385,767.31104,1836.84253,776.31238,1824.24182,776.24463z"/>
	<path class="st0" d="M1994.41125,726.24353c-17.38159,0-29.63696,12.68799-29.63696,29.98242
		c0,17.297,12.25537,29.98547,29.63696,29.98547c17.38098,0,29.63635-12.68848,29.63635-29.98547
		C2024.04761,738.93152,2011.79224,726.24353,1994.41125,726.24353z M1994.41125,777.1734
		c-11.73242,0-19.20703-9.04071-19.20703-20.94745c0-11.99341,7.47461-20.94434,19.20703-20.94434
		c11.64734,0,19.20654,8.95093,19.20654,20.94434C2013.6178,768.13269,2006.05859,777.1734,1994.41125,777.1734z"/>
	<polygon class="st0" points="2081.9707,785.2113 2092.13892,785.2113 2092.13892,760.18134 2121.08081,760.18134 
		2121.08081,751.23041 2092.13892,751.23041 2092.13892,736.19409 2121.68823,736.19409 2121.68823,727.24316 2081.9707,727.24316 	
		"/>
	<polygon class="st0" points="2248.98486,727.25104 2238.81641,727.25104 2238.81641,785.21973 2274.53809,785.21973 
		2274.53809,776.2688 2248.98486,776.2688 	"/>
	<polygon class="st0" points="2330.69922,785.21973 2370.41992,785.21973 2370.41992,776.2688 2340.86768,776.2688 
		2340.86768,760.18921 2369.80981,760.18921 2369.80981,751.23828 2340.86768,751.23828 2340.86768,736.20197 2370.41992,736.20197 
		2370.41992,727.25104 2330.69922,727.25104 	"/>
	<path class="st0" d="M2444.4856,727.25104l-22.76978,57.96869h11.55811l4.26001-11.125h26.59375l4.26001,11.125h11.55811
		l-22.76978-57.96869H2444.4856z M2440.40186,765.1438l10.42798-27.63928l10.42969,27.63928H2440.40186z"/>
	<path class="st0" d="M2577.6521,745.41437c0-10.69135-7.47192-18.16333-18.94507-18.16333h-25.46558v57.96869h10.16846v-21.64209
		h10.08374l12.8623,21.64209h11.73193l-14.16699-22.76978C2570.87524,761.31958,2577.6521,755.75708,2577.6521,745.41437z
		 M2543.40991,754.62671v-18.42474h13.90527c5.73682,0,9.90967,3.65039,9.90967,9.2124c0,5.5625-4.17285,9.21234-9.90967,9.21234
		H2543.40991z"/>
	<polygon class="st0" points="2674.83862,767.4895 2645.20215,727.25104 2634.77246,727.25104 2634.77246,785.21973 
		2644.94092,785.21973 2644.94092,743.85089 2675.18726,785.21973 2685.00708,785.21973 2685.00708,727.25104 2674.83862,727.25104 
			"/>
	<rect x="2744.30078" y="727.25104" class="st0" width="10.16843" height="57.96866"/>
	<polygon class="st0" points="2853.82153,767.4895 2824.18506,727.25104 2813.75513,727.25104 2813.75513,785.21973 
		2823.92358,785.21973 2823.92358,743.85089 2854.17017,785.21973 2863.98999,785.21973 2863.98999,727.25104 2853.82153,727.25104 
			"/>
	<path class="st0" d="M2947.53442,754.10645v8.95093h17.29712v9.03809c-2.60938,2.435-7.82324,5.21649-13.73438,5.21649
		c-11.47046,0-19.98804-8.86639-19.98804-21.03406c0-12.16821,8.51758-20.94482,19.98804-20.94482
		c6.51855,0,11.9939,3.38898,15.03638,7.73346l8.34351-4.69049c-4.6936-6.69287-12.08057-12.08105-23.37988-12.08105
		c-16.77344,0-30.41797,11.81958-30.41797,29.98291c0,18.16541,13.64453,30.07214,30.41797,30.07214
		c10.0813,0,18.16602-4.17328,23.90283-10.51703v-21.72656H2947.53442z"/>
</g>
<g>
	<path class="st0" d="M1262.229,193.72832h-93.59949v255.62944c0,60.0343-34.20923,101.34781-100.70361,101.34781
		c-66.4845,0-101.34528-41.31351-101.34528-101.34781V193.72832H873.6228v258.85608
		c0,105.86649,63.26825,179.45566,194.3031,179.45566c131.04468,0,194.3031-72.94293,194.3031-180.10193V193.72832z"/>
	<polygon class="st0" points="1792.85229,193.72832 1717.97058,504.87292 1636.63611,193.72832 1564.98096,193.72832 
		1482.995,504.87292 1407.47278,193.72832 1304.83496,193.72832 1428.12927,624.29425 1525.60156,624.29425 1600.48279,328.64386 
		1676.01074,624.29425 1773.48254,624.29425 1896.1311,193.72832 	"/>
	<path class="st0" d="M2056.23486,304.76022c-102.63733,0-164.60779,74.87912-164.60779,163.31781
		c0,89.08292,61.97046,163.96201,164.60779,163.96201c103.28394,0,165.25439-74.87909,165.25439-163.96201
		C2221.48926,379.63934,2159.5188,304.76022,2056.23486,304.76022z M2056.23486,559.09711
		c-50.99292,0-79.40039-41.95978-79.40039-91.01907c0-48.4151,28.40747-90.37488,79.40039-90.37488
		c50.99805,0,80.04712,41.95978,80.04712,90.37488C2136.28198,517.13733,2107.23291,559.09711,2056.23486,559.09711z"/>
	<path class="st0" d="M2364.14746,418.3725c13.55762-20.01285,49.71094-35.50391,76.81543-35.50391
		c9.03833,0,16.78418,0.64627,22.5957,1.93619v-80.04456c-38.72827,0-77.46143,22.5932-99.41113,50.34973v-42.60394h-81.98071
		v311.78824h81.98071V418.3725z"/>
	<rect x="2514.54688" y="193.72832" class="st0" width="81.98074" height="430.56595"/>
	<path class="st0" d="M2974.80249,624.29425V193.72832h-82.62695V352.5296c-24.52954-31.63153-59.39038-47.76938-96.18457-47.76938
		c-79.39575,0-138.13965,61.97052-138.13965,163.96201c0,103.9303,59.39014,163.31781,138.13965,163.31781
		c37.4458,0,71.65503-16.78412,96.18457-47.76935v40.02356H2974.80249z M2821.17188,559.09711
		c-46.48413,0-78.75952-36.79694-78.75952-90.37488c0-54.22211,32.27539-91.01907,78.75952-91.01907
		c27.75635,0,57.44604,14.84741,71.00366,35.50391V523.5932C2878.61792,544.24969,2848.92822,559.09711,2821.17188,559.09711z"/>
</g>
<path class="st0" d="M392.42303,39.41832c-206.22614,0-373.44501,167.20897-373.44501,373.47681
	c0,206.2569,167.21887,373.4549,373.44501,373.4549c206.31891,0,373.51746-167.198,373.51746-373.4549
	C765.94049,206.62729,598.74194,39.41832,392.42303,39.41832z M639.85583,241.04349
	c7.44458,15.04285,9.35419,31.32507,6.91766,46.68793c-1.19769-7.38202-3.34497-14.72284-6.85559-21.72284
	c-18.60516-37.87111-65.758-52.85245-104.99194-33.41136c-20.09204,9.81958-34.103,26.72044-40.7934,45.82173
	c-1.19714-29.44621,14.61029-58.37593,42.77545-72.2628C575.02716,187.3441,620.99329,203.03792,639.85583,241.04349z
	 M608.32385,195.37759c-5.771-5.85443-12.50311-10.92343-20.02948-14.98083c-40.89655-21.73376-92.35486-4.89389-114.86258,37.51932
	c-11.55304,21.63057-13.3287,45.65649-6.95828,66.96655c-20.1442-25.4816-24.37723-61.29819-8.24979-91.8071
	c21.84686-41.06177,72.86166-56.70346,114.07767-34.83574C588.43927,166.86118,600.73547,180.04549,608.32385,195.37759z
	 M499.42569,113.89979c22.62082,4.18092,42.03171,15.31126,56.827,30.79815c-9.0545-4.87303-18.90479-8.42488-29.52856-10.38661
	c-56.827-10.67535-111.88873,28.69258-122.82309,87.71895c-5.68924,30.00336,1.17734,59.31561,16.66425,82.38049
	c-33.31757-22.87933-51.94354-63.99219-43.98352-106.2928C387.18518,140.89853,442.23703,103.22392,499.42569,113.89979z
	 M352.07581,109.62558c22.14655-9.88107,45.81079-11.8626,67.92657-7.1136c-10.67535,1.10439-21.47525,3.91303-31.89264,8.48692
	c-55.81589,24.91297-79.7381,92.33401-53.69937,150.58588c13.03995,29.56973,36.72504,51.10754,64.11676,61.95908
	c-42.80618-0.01096-83.69232-24.77957-102.29794-66.48135C271.02695,200.61755,296.09521,134.65321,352.07581,109.62558z
	 M224.23061,164.90778c15.74489-24.51114,38.53145-41.88784,64.07506-51.46871
	c-10.23236,8.14606-19.07004,17.99586-26.57608,29.44569c-39.95686,61.50511-19.19405,145.81606,46.24442,188.25063
	c33.31754,21.63058,71.75671,28.16617,106.75769,21.41376c-43.42532,27.84619-101.52295,29.16739-148.35577-1.21799
	C202.88928,310.28967,184.03609,226.77354,224.23061,164.90778z M135.78201,247.17726
	c10.24225-33.67924,30.44844-61.62862,56.50749-81.4726c-8.858,12.92686-15.99297,27.44331-20.77324,43.14702
	c-25.70882,84.95148,24.94424,175.4379,113.03531,202.20941c44.83984,13.5773,90.79498,8.01212,128.41904-11.76984
	c-40.3493,47.06006-106.34543,68.53583-169.50113,49.40381C158.19748,422.80069,109.95019,332.57278,135.78201,247.17726z
	 M96.41355,338.89264c0.82555,17.99585,4.54314,36.07458,11.29504,53.72958
	c36.13661,94.96701,145.37201,141.57309,244.01437,104.00116c50.17776-19.03873,87.90503-56.1557,108.07941-100.51132
	c-3.63419,70.8999-48.31973,136.56506-118.98199,163.34808c-95.50381,36.33252-202.43663-11.62604-238.7077-107.1189
	C87.77132,414.59366,86.63567,375.15329,96.41355,338.89264z M629.79132,613.48108
	c-110.29858,132.51758-307.21176,150.52386-439.53339,40.13251c-52.37714-43.61194-86.8001-100.70782-102.59658-161.97476
	c16.26138,25.6572,36.74587,49.18698,61.18354,69.55734c131.73372,109.72113,331.00055,87.80182,444.93439-49.14581
	c57.85889-69.48489,82.63843-155.37607,75.73126-237.38547C722.83832,382.08344,711.64545,515.40625,629.79132,613.48108z"/>
</svg>
